<?xml version="1.0" encoding="utf-8"?>
<!-- Generator: Adobe Illustrator 23.0.5, SVG Export Plug-In . SVG Version: 6.00 Build 0)  -->
<svg version="1.1" id="Layer_1" xmlns="http://www.w3.org/2000/svg" xmlns:xlink="http://www.w3.org/1999/xlink" x="0px" y="0px"
	 viewBox="0 0 84.5 19.2" style="enable-background:new 0 0 84.5 19.2;" xml:space="preserve">
<style type="text/css">
	.st0{fill:#FFFFFF;stroke:#000000;stroke-miterlimit:10;}
	.st1{fill:url(#XMLID_2_);}
	.st2{fill:url(#XMLID_3_);}
	.st3{fill:url(#XMLID_4_);}
	.st4{fill:url(#XMLID_5_);}
	.st5{fill:#EF8122;}
	.st6{fill:url(#XMLID_6_);}
	.st7{fill:url(#XMLID_7_);}
	.st8{fill:url(#XMLID_8_);}
	.st9{fill:url(#XMLID_9_);}
	.st10{fill:url(#XMLID_10_);}
	.st11{fill:url(#XMLID_11_);}
	.st12{fill:url(#XMLID_12_);}
	.st13{fill:url(#XMLID_13_);}
	.st14{fill:url(#XMLID_14_);}
	.st15{fill:url(#XMLID_15_);}
	.st16{fill:url(#XMLID_16_);}
	.st17{fill:url(#XMLID_17_);}
	.st18{fill:url(#XMLID_18_);}
	.st19{fill:url(#XMLID_19_);}
	.st20{fill:url(#XMLID_20_);}
	.st21{fill:url(#XMLID_21_);}
	.st22{fill:url(#XMLID_22_);}
	.st23{fill:url(#XMLID_23_);}
	.st24{fill:url(#XMLID_24_);}
	.st25{fill:url(#XMLID_25_);}
	.st26{fill:url(#XMLID_26_);}
	.st27{fill:url(#XMLID_27_);}
	.st28{fill:url(#XMLID_28_);}
</style>
<g id="XMLID_257_">
	<path id="XMLID_272_" class="st0" d="M2.5,1.9"/>
	
		<linearGradient id="XMLID_2_" gradientUnits="userSpaceOnUse" x1="4.8871" y1="8.071" x2="8.8443" y2="8.071" gradientTransform="matrix(1 0 0 -1 0 21)">
		<stop  offset="0" style="stop-color:#F0811E"/>
		<stop  offset="0.4975" style="stop-color:#FAC223"/>
		<stop  offset="1" style="stop-color:#FAC223"/>
	</linearGradient>
	<path id="XMLID_271_" class="st1" d="M5.2,11.5c0,0,0.6,0,1.8,0.5s1.9-0.5,1.9-0.5v1.4c0,0-1,1.8-2.6,1.4C4,13.8,5.2,11.5,5.2,11.5
		z"/>
	
		<linearGradient id="XMLID_3_" gradientUnits="userSpaceOnUse" x1="1.5657" y1="13.35" x2="9.9798" y2="13.35" gradientTransform="matrix(1 0 0 -1 0 21)">
		<stop  offset="0" style="stop-color:#129D37"/>
		<stop  offset="0.5025" style="stop-color:#007F37"/>
		<stop  offset="1" style="stop-color:#006837"/>
	</linearGradient>
	<path id="XMLID_270_" class="st2" d="M2.5,1.9c0,0,0.1,2.3,5.1,4.7s0.7,6.8,0.7,6.8s1.7-3-3.1-4.6C-0.8,6.8,2.5,1.9,2.5,1.9z"/>
	
		<linearGradient id="XMLID_4_" gradientUnits="userSpaceOnUse" x1="4.1427" y1="5.95" x2="9.2248" y2="5.95" gradientTransform="matrix(1 0 0 -1 0 21)">
		<stop  offset="0" style="stop-color:#FAC223"/>
		<stop  offset="0.5025" style="stop-color:#FAC223"/>
		<stop  offset="1" style="stop-color:#F0811E"/>
	</linearGradient>
	<path id="XMLID_269_" class="st3" d="M5.2,11.5c0,0-1.2,1.9,2,3.1s1.6,4,1.6,4s-0.7-1.7-3.1-2.8C2.5,14.4,5.2,11.5,5.2,11.5z"/>
	
		<linearGradient id="XMLID_5_" gradientUnits="userSpaceOnUse" x1="1.5657" y1="13.3" x2="9.0472" y2="13.3" gradientTransform="matrix(1 0 0 -1 0 21)">
		<stop  offset="0" style="stop-color:#006837"/>
		<stop  offset="0.4975" style="stop-color:#007F37"/>
		<stop  offset="1" style="stop-color:#129D37"/>
	</linearGradient>
	<path id="XMLID_268_" class="st4" d="M8.3,13.5c0,0,0.2-0.2,0.4-0.5l0.1-0.1c0.7-2.1,0.4-3.6-3.7-5.8S2.5,1.9,2.5,1.9
		s-3.3,4.9,2.7,6.9C10,10.5,8.3,13.5,8.3,13.5z"/>
	<path id="XMLID_267_" class="st5" d="M6.3,15c-2.3-1-2-2.3-1.6-3c-0.6,0.9-1.4,2.7,1,3.8c2.2,1,3,2.6,3.1,2.7C9,17.9,9,16.2,6.3,15
		z"/>
	
		<linearGradient id="XMLID_6_" gradientUnits="userSpaceOnUse" x1="20.4704" y1="30.6356" x2="22.8159" y2="30.6356" gradientTransform="matrix(0.9885 0.1514 0.1514 -0.9885 -21.8507 29.265)">
		<stop  offset="0" style="stop-color:#F0811E"/>
		<stop  offset="0.4975" style="stop-color:#FAC223"/>
		<stop  offset="1" style="stop-color:#FAC223"/>
	</linearGradient>
	<polygon id="XMLID_266_" class="st6" points="4.3,1.7 5.1,1.3 4.6,2.1 5.3,2.8 4.4,2.6 4,3.4 3.9,2.5 3,2.4 3.8,2 3.6,1 	"/>
	
		<linearGradient id="XMLID_7_" gradientUnits="userSpaceOnUse" x1="22.3994" y1="29.1481" x2="24.4421" y2="29.1481" gradientTransform="matrix(0.9885 0.1514 0.1514 -0.9885 -21.8507 29.265)">
		<stop  offset="0" style="stop-color:#F0811E"/>
		<stop  offset="0.4975" style="stop-color:#FAC223"/>
		<stop  offset="1" style="stop-color:#FAC223"/>
	</linearGradient>
	<polygon id="XMLID_265_" class="st7" points="5.8,3.5 6.5,3.1 6.1,3.8 6.7,4.4 5.9,4.2 5.6,5 5.5,4.2 4.7,4.1 5.4,3.7 5.2,2.9 	"/>
	
		<linearGradient id="XMLID_8_" gradientUnits="userSpaceOnUse" x1="24.3187" y1="28.01" x2="25.7847" y2="28.01" gradientTransform="matrix(0.9885 0.1514 0.1514 -0.9885 -21.8507 29.265)">
		<stop  offset="0" style="stop-color:#F0811E"/>
		<stop  offset="0.4975" style="stop-color:#FAC223"/>
		<stop  offset="1" style="stop-color:#FAC223"/>
	</linearGradient>
	<polygon id="XMLID_264_" class="st8" points="7.2,5 7.7,4.7 7.4,5.3 7.8,5.7 7.3,5.6 7,6.1 7,5.5 6.4,5.4 6.9,5.2 6.8,4.6 	"/>
	
		<linearGradient id="XMLID_9_" gradientUnits="userSpaceOnUse" x1="25.7386" y1="27.3252" x2="26.7159" y2="27.3252" gradientTransform="matrix(0.9885 0.1514 0.1514 -0.9885 -21.8507 29.265)">
		<stop  offset="0" style="stop-color:#F0811E"/>
		<stop  offset="0.4975" style="stop-color:#FAC223"/>
		<stop  offset="1" style="stop-color:#FAC223"/>
	</linearGradient>
	<polygon id="XMLID_263_" class="st9" points="8.2,6 8.6,5.8 8.4,6.2 8.7,6.5 8.3,6.4 8.1,6.7 8.1,6.4 7.7,6.3 8,6.1 8,5.7 	"/>
	
		<linearGradient id="XMLID_10_" gradientUnits="userSpaceOnUse" x1="26.8879" y1="15.0307" x2="28.1584" y2="15.0307" gradientTransform="matrix(0.9885 0.1514 0.1514 -0.9885 -21.8507 29.265)">
		<stop  offset="0" style="stop-color:#129D37"/>
		<stop  offset="0.5025" style="stop-color:#007F37"/>
		<stop  offset="1" style="stop-color:#006837"/>
	</linearGradient>
	<polygon id="XMLID_262_" class="st10" points="7.7,18.3 8.1,18 7.9,18.5 8.2,18.8 7.7,18.7 7.5,19.2 7.5,18.7 7,18.6 7.4,18.4 
		7.3,17.9 	"/>
	
		<linearGradient id="XMLID_11_" gradientUnits="userSpaceOnUse" x1="25.6718" y1="15.959" x2="26.9423" y2="15.959" gradientTransform="matrix(0.9885 0.1514 0.1514 -0.9885 -21.8507 29.265)">
		<stop  offset="0" style="stop-color:#129D37"/>
		<stop  offset="0.5025" style="stop-color:#007F37"/>
		<stop  offset="1" style="stop-color:#006837"/>
	</linearGradient>
	<polygon id="XMLID_261_" class="st11" points="6.6,17.2 7,16.9 6.8,17.4 7.2,17.7 6.7,17.6 6.5,18.1 6.4,17.6 5.9,17.5 6.4,17.3 
		6.3,16.8 	"/>
	
		<linearGradient id="XMLID_12_" gradientUnits="userSpaceOnUse" x1="24.4058" y1="16.5756" x2="25.6762" y2="16.5756" gradientTransform="matrix(0.9885 0.1514 0.1514 -0.9885 -21.8507 29.265)">
		<stop  offset="0" style="stop-color:#129D37"/>
		<stop  offset="0.5025" style="stop-color:#007F37"/>
		<stop  offset="1" style="stop-color:#006837"/>
	</linearGradient>
	<polygon id="XMLID_260_" class="st12" points="5.5,16.4 5.9,16.1 5.7,16.6 6,16.9 5.5,16.8 5.3,17.3 5.3,16.8 4.8,16.7 5.2,16.5 
		5.1,16 	"/>
	
		<linearGradient id="XMLID_13_" gradientUnits="userSpaceOnUse" x1="23.0443" y1="17.1772" x2="24.3148" y2="17.1772" gradientTransform="matrix(0.9885 0.1514 0.1514 -0.9885 -21.8507 29.265)">
		<stop  offset="0" style="stop-color:#129D37"/>
		<stop  offset="0.5025" style="stop-color:#007F37"/>
		<stop  offset="1" style="stop-color:#006837"/>
	</linearGradient>
	<polygon id="XMLID_259_" class="st13" points="4.2,15.6 4.6,15.3 4.4,15.8 4.8,16.1 4.3,16 4.1,16.5 4,16 3.5,15.9 4,15.7 
		3.9,15.2 	"/>
	
		<linearGradient id="XMLID_14_" gradientUnits="userSpaceOnUse" x1="18.671" y1="22.9164" x2="21.1143" y2="22.9164" gradientTransform="matrix(1.0544 0.1614 0.153 -0.9991 -20.7715 30.0753)">
		<stop  offset="0" style="stop-color:#129D37"/>
		<stop  offset="0.5025" style="stop-color:#007F37"/>
		<stop  offset="1" style="stop-color:#006837"/>
	</linearGradient>
	<polygon id="XMLID_258_" class="st14" points="3.8,9.8 4.7,9.3 4.2,10.2 5,10.9 4,10.7 3.5,11.6 3.4,10.6 2.4,10.5 3.3,10.1 
		3.1,9.1 	"/>
</g>
<g id="XMLID_147_">
	<g id="XMLID_218_">
		
			<linearGradient id="XMLID_15_" gradientUnits="userSpaceOnUse" x1="14.75" y1="15.0476" x2="14.75" y2="2.6476" gradientTransform="matrix(1 0 0 -1 0 21)">
			<stop  offset="0" style="stop-color:#129D37"/>
			<stop  offset="0.5025" style="stop-color:#007F37"/>
			<stop  offset="1" style="stop-color:#006837"/>
		</linearGradient>
		<path id="XMLID_236_" class="st15" d="M10.5,18.3V6h3.2c1.4,0,2.5,0.3,3.2,0.8c0.5,0.3,0.8,0.8,1.1,1.3c0.2,0.5,0.4,1,0.4,1.5
			c0,0.4-0.1,0.8-0.2,1.1c-0.2,0.3-0.4,0.7-0.8,1c1.1,0.8,1.6,1.8,1.6,2.9s-0.5,2.1-1.5,2.9c-0.4,0.3-0.9,0.6-1.4,0.7
			s-1.1,0.2-1.8,0.2h-3.8V18.3z M13.5,10.8H14c0.4,0,0.7,0,0.9-0.1c0.2,0,0.3-0.1,0.5-0.2c0.2-0.2,0.4-0.5,0.4-0.9
			c0-0.8-0.4-1.1-1.7-1.1h-0.5L13.5,10.8L13.5,10.8z M13.5,15.7h0.7c0.8,0,1.2-0.1,1.5-0.3s0.4-0.5,0.4-0.9c0-0.5-0.2-0.8-0.5-1
			s-0.8-0.3-1.6-0.3h-0.6v2.5H13.5z"/>
		
			<linearGradient id="XMLID_16_" gradientUnits="userSpaceOnUse" x1="25.35" y1="15.0476" x2="25.35" y2="2.327" gradientTransform="matrix(1 0 0 -1 0 21)">
			<stop  offset="0" style="stop-color:#129D37"/>
			<stop  offset="0.5025" style="stop-color:#007F37"/>
			<stop  offset="1" style="stop-color:#006837"/>
		</linearGradient>
		<path id="XMLID_234_" class="st16" d="M23.6,6v7.6c0,0.8,0.1,1.4,0.2,1.6c0.3,0.4,1,0.7,1.6,0.7s1.3-0.3,1.6-0.7
			c0.2-0.3,0.2-0.8,0.2-1.6V6h3v7.9c0,1.3-0.3,2.2-0.9,3c-0.5,0.6-1.1,1-1.8,1.4c-0.7,0.3-1.4,0.4-2.1,0.4c-1.1,0-2.1-0.3-3-0.9
			c-1.3-0.9-1.9-2.1-1.9-4V6H23.6z"/>
		
			<linearGradient id="XMLID_17_" gradientUnits="userSpaceOnUse" x1="38.85" y1="15.0476" x2="38.85" y2="2.6476" gradientTransform="matrix(1 0 0 -1 0 21)">
			<stop  offset="0" style="stop-color:#129D37"/>
			<stop  offset="0.5025" style="stop-color:#007F37"/>
			<stop  offset="1" style="stop-color:#006837"/>
		</linearGradient>
		<path id="XMLID_232_" class="st17" d="M32.6,18.3V6h2.7l3.5,6.1L42.4,6h2.7v12.4h-3v-6.2L39.9,16h-2.1l-2.2-3.8v6.2h-3V18.3z"/>
		
			<linearGradient id="XMLID_18_" gradientUnits="userSpaceOnUse" x1="52.35" y1="15.0476" x2="52.35" y2="2.6476" gradientTransform="matrix(1 0 0 -1 0 21)">
			<stop  offset="0" style="stop-color:#129D37"/>
			<stop  offset="0.5025" style="stop-color:#007F37"/>
			<stop  offset="1" style="stop-color:#006837"/>
		</linearGradient>
		<path id="XMLID_229_" class="st18" d="M54.6,15.8h-4.5l-0.9,2.6H46L50.7,6h3.4l4.6,12.4h-3.2L54.6,15.8z M53.7,13l-1.3-3.8
			L51.1,13H53.7z"/>
		
			<linearGradient id="XMLID_19_" gradientUnits="userSpaceOnUse" x1="63.85" y1="15.0476" x2="63.85" y2="2.6476" gradientTransform="matrix(1 0 0 -1 0 21)">
			<stop  offset="0" style="stop-color:#129D37"/>
			<stop  offset="0.5025" style="stop-color:#007F37"/>
			<stop  offset="1" style="stop-color:#006837"/>
		</linearGradient>
		<path id="XMLID_225_" class="st19" d="M59.6,18.3V6h3.2c1.4,0,2.5,0.3,3.2,0.8c0.5,0.3,0.8,0.8,1.1,1.3c0.2,0.5,0.4,1,0.4,1.5
			c0,0.4-0.1,0.8-0.2,1.1c-0.2,0.3-0.4,0.7-0.8,1c1.1,0.8,1.6,1.8,1.6,2.9s-0.5,2.1-1.5,2.9c-0.4,0.3-0.9,0.6-1.4,0.7
			s-1.1,0.2-1.8,0.2h-3.8V18.3z M62.5,10.8H63c0.4,0,0.7,0,0.9-0.1c0.2,0,0.3-0.1,0.5-0.2c0.2-0.2,0.4-0.5,0.4-0.9
			c0-0.8-0.4-1.1-1.7-1.1h-0.5v2.3H62.5z M62.5,15.7h0.7c0.8,0,1.2-0.1,1.5-0.3c0.3-0.2,0.4-0.5,0.4-0.9c0-0.5-0.2-0.8-0.5-1
			s-0.8-0.3-1.6-0.3h-0.6L62.5,15.7L62.5,15.7z"/>
		
			<linearGradient id="XMLID_20_" gradientUnits="userSpaceOnUse" x1="74.55" y1="15.0476" x2="74.55" y2="2.6476" gradientTransform="matrix(1 0 0 -1 0 21)">
			<stop  offset="0" style="stop-color:#129D37"/>
			<stop  offset="0.5025" style="stop-color:#007F37"/>
			<stop  offset="1" style="stop-color:#006837"/>
		</linearGradient>
		<path id="XMLID_222_" class="st20" d="M76.8,15.8h-4.5l-0.9,2.6h-3.2L72.9,6h3.4l4.6,12.4h-3.2L76.8,15.8z M75.9,13l-1.3-3.8
			L73.3,13H75.9z"/>
	</g>
</g>
<g id="XMLID_364_">
	
		<linearGradient id="XMLID_21_" gradientUnits="userSpaceOnUse" x1="10.5939" y1="17.05" x2="12.9583" y2="17.05" gradientTransform="matrix(1 0 0 -1 0 21)">
		<stop  offset="0" style="stop-color:#129D37"/>
		<stop  offset="0.5025" style="stop-color:#007F37"/>
		<stop  offset="1" style="stop-color:#006837"/>
	</linearGradient>
	<path id="XMLID_366_" class="st21" d="M10.6,2.5h0.6v1.3l0,0c0.1-0.1,0.1-0.2,0.2-0.3l0.7-1h0.8l-1,1.2l1,1.7h-0.8l-0.7-1.2
		l-0.2,0.3v0.9h-0.6V2.5z"/>
	
		<linearGradient id="XMLID_22_" gradientUnits="userSpaceOnUse" x1="12.9499" y1="17.1" x2="15.7255" y2="17.1" gradientTransform="matrix(1 0 0 -1 0 21)">
		<stop  offset="0" style="stop-color:#129D37"/>
		<stop  offset="0.5025" style="stop-color:#007F37"/>
		<stop  offset="1" style="stop-color:#006837"/>
	</linearGradient>
	<path id="XMLID_368_" class="st22" d="M15.7,3.9c0,0.9-0.6,1.5-1.4,1.5c-0.9,0-1.4-0.6-1.4-1.5s0.6-1.5,1.4-1.5
		C15.2,2.4,15.7,3.1,15.7,3.9z M13.6,3.9c0,0.6,0.3,1,0.7,1s0.7-0.4,0.7-1c0-0.5-0.2-1-0.7-1C13.9,2.9,13.6,3.4,13.6,3.9z"/>
	
		<linearGradient id="XMLID_23_" gradientUnits="userSpaceOnUse" x1="16.154" y1="17.15" x2="18.2271" y2="17.15" gradientTransform="matrix(1 0 0 -1 0 21)">
		<stop  offset="0" style="stop-color:#129D37"/>
		<stop  offset="0.5025" style="stop-color:#007F37"/>
		<stop  offset="1" style="stop-color:#006837"/>
	</linearGradient>
	<path id="XMLID_371_" class="st23" d="M16.2,2.5c0.2,0,0.5-0.1,0.9-0.1s0.7,0.1,0.9,0.2c0.2,0.1,0.3,0.4,0.3,0.7S18.2,3.8,18,4
		c-0.2,0.2-0.6,0.3-0.9,0.3c-0.1,0-0.2,0-0.2,0v1h-0.6L16.2,2.5L16.2,2.5z M16.8,3.8c0.1,0,0.1,0,0.2,0c0.3,0,0.6-0.2,0.6-0.5
		s-0.2-0.4-0.5-0.4c-0.1,0-0.2,0-0.3,0C16.8,2.9,16.8,3.8,16.8,3.8z"/>
	
		<linearGradient id="XMLID_24_" gradientUnits="userSpaceOnUse" x1="18.6427" y1="17.1" x2="20.4846" y2="17.1" gradientTransform="matrix(1 0 0 -1 0 21)">
		<stop  offset="0" style="stop-color:#129D37"/>
		<stop  offset="0.5025" style="stop-color:#007F37"/>
		<stop  offset="1" style="stop-color:#006837"/>
	</linearGradient>
	<path id="XMLID_374_" class="st24" d="M20.4,4.1h-1.1v0.7h1.2v0.5h-1.8V2.5h1.8V3h-1.1v0.6h1.1v0.5H20.4z"/>
	
		<linearGradient id="XMLID_25_" gradientUnits="userSpaceOnUse" x1="20.9301" y1="17.15" x2="23.1103" y2="17.15" gradientTransform="matrix(1 0 0 -1 0 21)">
		<stop  offset="0" style="stop-color:#129D37"/>
		<stop  offset="0.5025" style="stop-color:#007F37"/>
		<stop  offset="1" style="stop-color:#006837"/>
	</linearGradient>
	<path id="XMLID_376_" class="st25" d="M20.9,2.5c0.2,0,0.5-0.1,0.9-0.1s0.7,0.1,0.9,0.2C22.9,2.8,23,3,23,3.3
		c0,0.4-0.3,0.6-0.5,0.7l0,0c0.2,0.1,0.3,0.3,0.4,0.5c0.1,0.3,0.2,0.7,0.2,0.8h-0.7c0-0.1-0.1-0.3-0.2-0.7c-0.1-0.4-0.2-0.5-0.5-0.5
		h-0.2v1.1h-0.6C20.9,5.2,20.9,2.5,20.9,2.5z M21.6,3.7h0.3c0.3,0,0.5-0.2,0.5-0.4c0-0.3-0.2-0.4-0.5-0.4c-0.2,0-0.2,0-0.3,0V3.7z"
		/>
	
		<linearGradient id="XMLID_26_" gradientUnits="userSpaceOnUse" x1="23.3" y1="17.05" x2="25.9342" y2="17.05" gradientTransform="matrix(1 0 0 -1 0 21)">
		<stop  offset="0" style="stop-color:#129D37"/>
		<stop  offset="0.5025" style="stop-color:#007F37"/>
		<stop  offset="1" style="stop-color:#006837"/>
	</linearGradient>
	<path id="XMLID_379_" class="st26" d="M24.2,4.6L24,5.4h-0.7l0.9-2.9H25l0.9,2.9h-0.7L25,4.6H24.2z M24.9,4.1l-0.2-0.6
		c-0.1-0.2-0.1-0.4-0.1-0.6l0,0c0,0.2-0.1,0.4-0.1,0.6l-0.2,0.6H24.9z"/>
	
		<linearGradient id="XMLID_27_" gradientUnits="userSpaceOnUse" x1="26.2073" y1="17.05" x2="28.1905" y2="17.05" gradientTransform="matrix(1 0 0 -1 0 21)">
		<stop  offset="0" style="stop-color:#129D37"/>
		<stop  offset="0.5025" style="stop-color:#007F37"/>
		<stop  offset="1" style="stop-color:#006837"/>
	</linearGradient>
	<path id="XMLID_382_" class="st27" d="M26.3,4.7c0.2,0.1,0.4,0.2,0.7,0.2c0.3,0,0.5-0.1,0.5-0.3c0-0.2-0.1-0.3-0.5-0.4
		c-0.5-0.2-0.8-0.4-0.8-0.9s0.4-0.9,1.1-0.9c0.3,0,0.6,0.1,0.7,0.1L27.9,3c-0.1,0-0.3,0-0.6,0c-0.3,0-0.4,0.1-0.4,0.3
		s0.2,0.3,0.5,0.4c0.5,0.2,0.7,0.5,0.7,0.9c0,0.5-0.4,0.9-1.2,0.9c-0.3,0-0.7-0.1-0.8-0.2L26.3,4.7z"/>
	
		<linearGradient id="XMLID_28_" gradientUnits="userSpaceOnUse" x1="28.6318" y1="17.05" x2="29.2872" y2="17.05" gradientTransform="matrix(1 0 0 -1 0 21)">
		<stop  offset="0" style="stop-color:#129D37"/>
		<stop  offset="0.5025" style="stop-color:#007F37"/>
		<stop  offset="1" style="stop-color:#006837"/>
	</linearGradient>
	<path id="XMLID_384_" class="st28" d="M29.3,2.5v2.9h-0.7V2.5H29.3z"/>
</g>
</svg>
