<svg id="Layer_1" data-name="Layer 1" xmlns="http://www.w3.org/2000/svg" viewBox="0 0 485.4 507.7"><title>notification</title><path d="M378.8,213.2A106.64,106.64,0,0,1,294.5,41.3a222,222,0,0,0-72.3-12C99.5,29.3,0,128.8,0,251.5S99.5,473.7,222.2,473.7s222.2-99.5,222.2-222.2a222,222,0,0,0-7.1-55.7A106.44,106.44,0,0,1,378.8,213.2Z" fill="#d7f4e0"/><path d="M228.2,507.7a70.33,70.33,0,0,0,70.3-70.3H157.9A70.2,70.2,0,0,0,228.2,507.7Z" fill="#fac223"/><path d="M405.4,447.8H53.6a37.37,37.37,0,0,1-24.3-65.7,10.92,10.92,0,0,1,1.7-1.3A143.09,143.09,0,0,0,80.2,272.7V213.2c0-82.3,67-149.3,149.3-149.3a61.66,61.66,0,0,1,10.5.6,16,16,0,0,1-3.8,31.8c-.5-.1-1-.1-1.5-.2a30.94,30.94,0,0,0-5.3-.2A117.47,117.47,0,0,0,112.1,213.2v59.5A175.19,175.19,0,0,1,50.2,406.4a5.5,5.5,0,0,1-.9.7,5.46,5.46,0,0,0-1.1,3.3,5.34,5.34,0,0,0,5.3,5.3H405.3a5.34,5.34,0,0,0,5.3-5.3,5.46,5.46,0,0,0-1.1-3.3c-.3-.2-.6-.5-.9-.7a175.19,175.19,0,0,1-61.9-133.7V249.5a16,16,0,0,1,32,0v23.2A143.56,143.56,0,0,0,428,380.9c.6.4,1.1.8,1.6,1.2a37.35,37.35,0,0,1-24.2,65.7Z" fill="#006d37"/><path d="M378.8,213.2A106.6,106.6,0,1,1,485.4,106.6h0A106.69,106.69,0,0,1,378.8,213.2Zm0-181.2a74.6,74.6,0,1,0,74.6,74.6A74.6,74.6,0,0,0,378.8,32Z" fill="#006c37"/></svg>