<svg id="Layer_1" data-name="Layer 1" xmlns="http://www.w3.org/2000/svg" viewBox="0 0 485.38 507.73"><title>notification</title><circle cx="222.17" cy="251.47" r="222.17" fill="#d7f4e0"/><circle cx="378.76" cy="106.61" r="106.61" fill="#fff"/><path d="M241.47,509.74a70.28,70.28,0,0,0,70.28-70.28H171.19A70.29,70.29,0,0,0,241.47,509.74Z" transform="translate(-13.31 -2.01)" fill="#fac223"/><path d="M418.73,449.79H66.9a37.33,37.33,0,0,1-24.26-65.68,15.11,15.11,0,0,1,1.7-1.28,143.3,143.3,0,0,0,49.22-108.1V215.24c0-82.31,67-149.26,149.26-149.26a63.94,63.94,0,0,1,10.51.64,16,16,0,1,1-5.25,31.53,34.37,34.37,0,0,0-5.26-.19A117.41,117.41,0,0,0,125.54,215.24v59.49a175.36,175.36,0,0,1-61.9,133.71c-.32.26-.6.49-.94.73a5.27,5.27,0,0,0-1.13,3.3,5.39,5.39,0,0,0,5.33,5.33H418.73a5.39,5.39,0,0,0,5.33-5.33,5.06,5.06,0,0,0-1.15-3.3c-.32-.24-.6-.47-.92-.73a175.32,175.32,0,0,1-61.9-133.71V251.49a16,16,0,1,1,32,0v23.24A143.37,143.37,0,0,0,441.35,382.9a15.58,15.58,0,0,1,1.64,1.23,37.31,37.31,0,0,1-24.26,65.66Z" transform="translate(-13.31 -2.01)" fill="#006d37"/><path d="M392.08,215.24A106.62,106.62,0,1,1,498.69,108.62,106.74,106.74,0,0,1,392.08,215.24Zm0-181.25a74.63,74.63,0,1,0,74.63,74.63A74.71,74.71,0,0,0,392.08,34Z" transform="translate(-13.31 -2.01)" fill="#006c37"/></svg>