<svg id="Layer_1" data-name="Layer 1" xmlns="http://www.w3.org/2000/svg" viewBox="0 0 478.6 483.6"><title>transaksi_empty</title><circle cx="222.17" cy="222.17" r="222.17" fill="#d7f4e0"/><path d="M322.6,141.57a92.36,92.36,0,0,0-59.32,59.33H322.6Z" transform="translate(0 -29.3)" fill="#fac223"/><path d="M322.6,112.21V101.62H124.05V200.9H233.92A120.54,120.54,0,0,1,322.6,112.21Z" transform="translate(0 -29.3)" fill="#fac223"/><path d="M251.69,229.26A99.28,99.28,0,1,0,351,130,99.38,99.38,0,0,0,251.69,229.26Zm36,56.73H322.6V271.81H277.39a85.29,85.29,0,0,1-6.55-14.18H322.6V243.44H267.16a84.87,84.87,0,0,1-1.29-14.18H322.6V215.08H267.16a85.16,85.16,0,0,1,69.62-69.63V313.08A85.06,85.06,0,0,1,287.72,286Zm148.34-56.73A85.18,85.18,0,0,1,351,314.35V144.17A85.18,85.18,0,0,1,436.06,229.26Z" transform="translate(0 -29.3)" fill="#006d37"/><path d="M478.6,229.26a127.66,127.66,0,0,0-70.91-114.17v-6.37a35.5,35.5,0,0,0-35.45-35.46H131.15a35.5,35.5,0,0,0-35.46,35.46V385.26H39v35.46a35.5,35.5,0,0,0,35.46,35.45H315.51v21.28a35.46,35.46,0,0,0,70.91,0V371.08H372.24V355C432.5,344.8,478.6,292.38,478.6,229.26Zm-14.18,0A113.46,113.46,0,1,1,351,115.81,113.59,113.59,0,0,1,464.42,229.26ZM393.51,108.72v.35a126.53,126.53,0,0,0-41.26-7.38,21.22,21.22,0,0,1,41.26,7Zm-78,262.36V442a21.3,21.3,0,0,1-21.27-21.27V385.26H124.05v14.18h156v21.28A35.09,35.09,0,0,0,287.33,442H74.42a21.31,21.31,0,0,1-21.28-21.27V399.44h56.73V108.72a21.31,21.31,0,0,1,21.28-21.28H344.06a35.06,35.06,0,0,0-6.63,14.92A127.82,127.82,0,0,0,224.17,215.08H152.42v14.18h70.91a127.63,127.63,0,0,0,.84,14.18H124.05v14.19H226.62a125.59,125.59,0,0,0,4.16,14.18H124.05V286H236.79a127.82,127.82,0,0,0,92.9,69v16.1Zm56.73,106.37a21.28,21.28,0,0,1-42.55,0V385.26h42.55ZM358.06,371.08H343.87V356.54c2.37.13,4.7.36,7.1.36s4.73-.23,7.09-.36Z" transform="translate(0 -29.3)" fill="#006d37"/><path d="M124.05,215.08h14.19v14.18H124.05Z" transform="translate(0 -29.3)" fill="#006d37"/><path d="M124.05,300.17H230.42v14.18H124.05Z" transform="translate(0 -29.3)" fill="#006d37"/><path d="M124.05,328.54H244.6v14.18H124.05Z" transform="translate(0 -29.3)" fill="#006d37"/><path d="M273,356.9h14.18v14.18H273Z" transform="translate(0 -29.3)" fill="#006d37"/><path d="M124.05,356.9H258.78v14.18H124.05Z" transform="translate(0 -29.3)" fill="#006d37"/></svg>