<svg id="Layer_1" data-name="Layer 1" xmlns="http://www.w3.org/2000/svg" xmlns:xlink="http://www.w3.org/1999/xlink" viewBox="0 0 24 24"><defs><linearGradient id="linear-gradient" x1="12" y1="-152" x2="12" y2="-127.76" gradientTransform="matrix(1, 0, 0, -1, 0, -128)" gradientUnits="userSpaceOnUse"><stop offset="0" stop-color="#fff"/><stop offset="0.17" stop-color="#fcfdfe"/><stop offset="0.32" stop-color="#f1f7fc"/><stop offset="0.46" stop-color="#dfedf7"/><stop offset="0.6" stop-color="#c5def1"/><stop offset="0.73" stop-color="#a4cce9"/><stop offset="0.86" stop-color="#7cb5df"/><stop offset="0.99" stop-color="#4d9ad4"/><stop offset="1" stop-color="#4998d3"/></linearGradient></defs><title>bpjs_icon</title><circle cx="12" cy="12" r="12" opacity="0.4" fill="url(#linear-gradient)" style="isolation:isolate"/><path d="M10.42,14.25l1.05-.93H10.31V12h.54l-1-.92-1,.91h.5v1.55c0,.48.09.69.5.7Z" fill="#3c893f" fill-rule="evenodd"/><path d="M13.58,11.11,12.53,12h1.16v1.3h-.54l1,.93,1-.91h-.5V11.8c0-.48-.09-.69-.5-.7Z" fill="#3c893f" fill-rule="evenodd"/><path d="M13.58,14.26l-.94-1v1.16h-1.3v-.55l-.92,1,.91,1v-.5h1.55c.48,0,.7-.08.7-.5v-.57Z" fill="#3c893f" fill-rule="evenodd"/><path d="M10.43,11.1l.94,1.05V11h1.29v.55l.93-1-.91-1V10H11.13c-.48,0-.7.09-.71.51v.56Z" fill="#3c893f" fill-rule="evenodd"/><path d="M6.25,9.8C6.12,10,6,10,5.91,10.91a3.41,3.41,0,0,0,.47,1.84A1.17,1.17,0,0,1,6.59,12c.27-.36.82-.89,1.07-1.24A2,2,0,0,0,8,9.9H8a1.77,1.77,0,0,1-.77.17,1.85,1.85,0,0,1-1-.27Z" fill="#1c4596" fill-rule="evenodd"/><path d="M8.54,8.22A1.33,1.33,0,1,1,7.21,6.89,1.33,1.33,0,0,1,8.54,8.22Z" fill="#1c4596" fill-rule="evenodd"/><path d="M8.72,7.1a5.42,5.42,0,0,1,2-.87,9.79,9.79,0,0,1,2.48.1,3.13,3.13,0,0,0-1.14.31,9.15,9.15,0,0,0-1.31,1.12,5.48,5.48,0,0,1-1.26,1A1.4,1.4,0,0,1,9,8.85a1.85,1.85,0,0,0,.11-.63A1.89,1.89,0,0,0,8.72,7.1Z" fill="#1c4596" fill-rule="evenodd"/><path d="M9.18,18.49c.21.14.21.25,1.11.35a3.41,3.41,0,0,0,1.84-.47,1.21,1.21,0,0,1-.79-.22c-.36-.27-.89-.81-1.25-1.07a2.14,2.14,0,0,0-.81-.32h0a1.84,1.84,0,0,1-.1,1.73Z" fill="#3c893f" fill-rule="evenodd"/><path d="M7.6,16.21a1.33,1.33,0,1,1-1.33,1.33A1.32,1.32,0,0,1,7.6,16.21Z" fill="#3c893f" fill-rule="evenodd"/><path d="M6.48,16a5.42,5.42,0,0,1-.87-2,9.88,9.88,0,0,1,.1-2.49A3.16,3.16,0,0,0,6,12.65,9.15,9.15,0,0,0,7.14,14a5.48,5.48,0,0,1,1,1.26,1.36,1.36,0,0,1,.14.55A1.87,1.87,0,0,0,6.48,16Z" fill="#3c893f" fill-rule="evenodd"/><path d="M17.75,15.56c.13-.21.24-.21.34-1.11a3.41,3.41,0,0,0-.47-1.84,1.17,1.17,0,0,1-.21.79c-.27.36-.82.89-1.07,1.25a2,2,0,0,0-.32.81h0a1.77,1.77,0,0,1,.77-.17,1.85,1.85,0,0,1,1,.27Z" fill="#1c4596" fill-rule="evenodd"/><path d="M15.47,17.14a1.33,1.33,0,1,1,1.32,1.33A1.32,1.32,0,0,1,15.47,17.14Z" fill="#1c4596" fill-rule="evenodd"/><path d="M15.28,18.26a5.34,5.34,0,0,1-2,.87,9.88,9.88,0,0,1-2.49-.1,3.16,3.16,0,0,0,1.15-.31,9.73,9.73,0,0,0,1.31-1.12,5.48,5.48,0,0,1,1.26-1,1.36,1.36,0,0,1,.55-.14,1.85,1.85,0,0,0-.11.63,1.9,1.9,0,0,0,.37,1.12h0Z" fill="#1c4596" fill-rule="evenodd"/><path d="M14.82,6.87c-.21-.13-.21-.25-1.11-.35A3.41,3.41,0,0,0,11.87,7a1.21,1.21,0,0,1,.79.22c.36.27.89.82,1.25,1.07a2.14,2.14,0,0,0,.81.32h0a1.81,1.81,0,0,1-.17-.77,1.85,1.85,0,0,1,.27-1Z" fill="#3c893f" fill-rule="evenodd"/><path d="M16.4,9.15a1.33,1.33,0,1,1,1.33-1.32A1.32,1.32,0,0,1,16.4,9.15Z" fill="#3c893f" fill-rule="evenodd"/><path d="M17.52,9.34a5.34,5.34,0,0,1,.87,2,9.84,9.84,0,0,1-.1,2.49A3.16,3.16,0,0,0,18,12.71a9.73,9.73,0,0,0-1.12-1.31,5.69,5.69,0,0,1-.95-1.25,1.4,1.4,0,0,1-.14-.56,1.9,1.9,0,0,0,.63.11,1.84,1.84,0,0,0,1.12-.37h0Z" fill="#3c893f" fill-rule="evenodd"/></svg>