<svg id="Layer_1" data-name="Layer 1" xmlns="http://www.w3.org/2000/svg" viewBox="0 0 13.01 18.86"><title>clock_sand</title><g id="Solid"><path d="M10,13.9a1.89,1.89,0,0,1-1.33,1c-1.83.57-3,1.38-3.18,2.26h9c-.22-.88-1.35-1.69-3.18-2.26A1.89,1.89,0,0,1,10,13.9Z" transform="translate(-3.5 -0.57)"/><path d="M6.1,4.8A7.26,7.26,0,0,0,8.67,7.5a3,3,0,0,1,1.33,2,3,3,0,0,1,1.33-2A7.26,7.26,0,0,0,13.9,4.8Z" transform="translate(-3.5 -0.57)"/><path d="M12,8.6a7.7,7.7,0,0,0,3.82-6.41h0a.65.65,0,0,0,.65-.65v-1H3.5V1.5a.68.68,0,0,0,.65.69h0A7.7,7.7,0,0,0,8,8.6a1.66,1.66,0,0,1,0,2.8,7.7,7.7,0,0,0-3.82,6.41h0a.68.68,0,0,0-.65.69v.93h13v-1a.65.65,0,0,0-.65-.65h0A7.7,7.7,0,0,0,12,11.4,1.66,1.66,0,0,1,12,8.6ZM10.61,10A2.3,2.3,0,0,0,11.68,12a7,7,0,0,1,3.52,5.86H4.8A7,7,0,0,1,8.32,12a2.32,2.32,0,0,0,0-3.9A7,7,0,0,1,4.8,2.19H15.2a7,7,0,0,1-3.52,5.86A2.3,2.3,0,0,0,10.61,10Z" transform="translate(-3.5 -0.57)"/><path d="M10,11.28a.3.3,0,0,0,.3-.3h0v-.33a.3.3,0,1,0-.6,0V11a.3.3,0,0,0,.3.3Z" transform="translate(-3.5 -0.57)"/><path d="M9.7,12.6a.3.3,0,1,0,.6,0v-.32a.3.3,0,1,0-.6,0Z" transform="translate(-3.5 -0.57)"/></g></svg>