<svg id="Layer_1" data-name="Layer 1" xmlns="http://www.w3.org/2000/svg" viewBox="0 0 496 496"><title>document_search</title><path d="M240,176A112,112,0,1,0,352,64,112.12,112.12,0,0,0,240,176Zm64-83v35H269A96.65,96.65,0,0,1,304,93ZM280.65,240H320V224H269a95.66,95.66,0,0,1-7.39-16H320V192H257.45A95.87,95.87,0,0,1,256,176h64V160H257.45a95.85,95.85,0,0,1,4.15-16H320V85.6a94.89,94.89,0,0,1,16-4.15V270.56A95.89,95.89,0,0,1,280.65,240ZM448,176a96.1,96.1,0,0,1-96,96V80A96.1,96.1,0,0,1,448,176Z"/><path d="M496,176c0-56.4-32.66-105.18-80-128.81V40A40.05,40.05,0,0,0,376,0H104A40.05,40.05,0,0,0,64,40V352H0v40a40.05,40.05,0,0,0,40,40H312v24a40,40,0,0,0,80,0V336H376V317.83C444,306.35,496,247.21,496,176Zm-16,0c0,70.57-57.43,128-128,128S224,246.57,224,176,281.43,48,352,48,480,105.43,480,176ZM216.4,128H112V48H286.33A144.59,144.59,0,0,0,216.4,128ZM400,40v.4a142.78,142.78,0,0,0-46.55-8.33A23.94,23.94,0,0,1,400,40ZM312,336v80a24,24,0,0,1-24-24V352H96v16H272v24a39.58,39.58,0,0,0,8.21,24H40a24,24,0,0,1-24-24V368H80V40a24,24,0,0,1,24-24H344.21a39.59,39.59,0,0,0-7.48,16.83A141.83,141.83,0,0,0,320,35.71V32H96V144H211.71A142.9,142.9,0,0,0,209,160H128v16h80a143.49,143.49,0,0,0,.95,16H96v16H211.71a141.49,141.49,0,0,0,4.7,16H96v16H223.19A144.2,144.2,0,0,0,328,317.83V336Zm64,120a24,24,0,0,1-48,0V352h48ZM360,336H344V319.59c2.66.15,5.3.41,8,.41s5.34-.26,8-.41Z"/><path d="M96,160h16v16H96Z"/><path d="M96,256H216v16H96Z"/><path d="M96,288H232v16H96Z"/><path d="M264,320h16v16H264Z"/><path d="M96,320H248v16H96Z"/></svg>