<svg id="Layer_1" data-name="Layer 1" xmlns="http://www.w3.org/2000/svg" viewBox="0 0 24.04 22.64"><title>history_icon</title><path d="M7.4,3.17s11.6-1.9,11.3,8.6-12.6,7.8-12.6,7.8l4.4,2.5,7.6-2,4.3-5.6.4-3.5-1.4-4.2L17,2l-6.4-.9Z" transform="translate(0 0)" fill="#0d9437" opacity="0.15" style="isolation:isolate"/><path d="M4.1,17.37a11,11,0,0,0,11.5,4.1,10.66,10.66,0,0,0,7.2-13.1C21,2.47,14.6-.13,9.6,1.17A11.24,11.24,0,0,0,3,6.87" transform="translate(0 0)" fill="none" stroke="#0d9437" stroke-linecap="round" stroke-miterlimit="10" stroke-width="1.68"/><path d="M12.2,12.27h0a1,1,0,0,1-1-.9V6.77a.9.9,0,0,1,.9-.9h0a.9.9,0,0,1,.9.9v4.6C13.2,11.87,12.8,12.27,12.2,12.27Z" transform="translate(0 0)" fill="#0d9437"/><path d="M12.9,11.37v.2a.82.82,0,0,0-.9.3h0l-.7-.4a2.68,2.68,0,0,0,.6,1.6l2.2,2.1a.84.84,0,0,0,1.2,0,.52.52,0,0,0,.1-.11,1,1,0,0,0,0-1.3Z" transform="translate(0 0)" fill="#0d9437"/><path d="M5.7,2.37h0l-.2.1L1.6,7.37h0c0-.1.1.1.1,0a2.5,2.5,0,0,0-.1-.9h0l-.1-2.1a1.56,1.56,0,0,0-.8-.8H.6a.76.76,0,0,0-.6.7v.2l.5,4.4a1,1,0,0,0,.9.8l4.2-.5a1,1,0,0,0,.8-.9h0c0-.2-.4-.5-.6-.4l-2.9.4.3-.2c-.1.1-.2.1-.4.1l-.2.2,4-5a.75.75,0,0,0,0-.9H6.5C6,2,5.9,2.07,5.7,2.37Z" transform="translate(0 0)" fill="#0d9437"/><path d="M4.7,5.67,2.8,9,1.6,7.37S3,5.07,3.2,4.87,4.7,5.67,4.7,5.67Z" transform="translate(0 0)" fill="#0d9437"/></svg>