<svg id="Layer_1" data-name="Layer 1" xmlns="http://www.w3.org/2000/svg" xmlns:xlink="http://www.w3.org/1999/xlink" viewBox="0 0 24 24"><defs><linearGradient id="linear-gradient" x1="12" y1="-152" x2="12" y2="-127.76" gradientTransform="matrix(1, 0, 0, -1, 0, -128)" gradientUnits="userSpaceOnUse"><stop offset="0" stop-color="#fff"/><stop offset="0.17" stop-color="#fcfdfe"/><stop offset="0.32" stop-color="#f1f7fc"/><stop offset="0.46" stop-color="#dfedf7"/><stop offset="0.6" stop-color="#c5def1"/><stop offset="0.73" stop-color="#a4cce9"/><stop offset="0.86" stop-color="#7cb5df"/><stop offset="0.99" stop-color="#4d9ad4"/><stop offset="1" stop-color="#4998d3"/></linearGradient></defs><title>lainnya_icon</title><circle cx="12" cy="12" r="12" opacity="0.4" fill="url(#linear-gradient)" style="isolation:isolate"/><path d="M16.68,5.22H14.87A1.91,1.91,0,0,0,13,7.13V9a1.91,1.91,0,0,0,1.91,1.91h1.81A1.91,1.91,0,0,0,18.59,9V7.13A1.91,1.91,0,0,0,16.68,5.22Zm1,3.73a1,1,0,0,1-1,1H14.87a1,1,0,0,1-1-1V7.13a1,1,0,0,1,1-1h1.81a1,1,0,0,1,1,1Z" fill="#2781c4"/><path d="M10.09,5.22H8.27A1.92,1.92,0,0,0,6.36,7.13V9a1.92,1.92,0,0,0,1.91,1.91h1.82A1.92,1.92,0,0,0,12,9V7.13A1.92,1.92,0,0,0,10.09,5.22ZM11,9a1,1,0,0,1-.95,1H8.27a1,1,0,0,1-.95-1V7.13a1,1,0,0,1,.95-1h1.82a.94.94,0,0,1,.95,1Z" fill="#2781c4"/><path d="M10.09,11.81H8.27a1.92,1.92,0,0,0-1.91,1.91v1.82a1.92,1.92,0,0,0,1.91,1.91h1.82A1.92,1.92,0,0,0,12,15.54V13.72A1.92,1.92,0,0,0,10.09,11.81ZM11,15.54a1,1,0,0,1-.95,1H8.27a1,1,0,0,1-.95-1V13.72a1,1,0,0,1,.95-1h1.82a1,1,0,0,1,.95,1Z" fill="#2781c4"/><path d="M18.11,15.06a.48.48,0,0,0-.47.48,1,1,0,0,1-1,1H14.87a1,1,0,0,1-1-1V13.72a1,1,0,0,1,1-1h1.81a1,1,0,0,1,.88.57.49.49,0,0,0,.63.25.48.48,0,0,0,.24-.63,1.9,1.9,0,0,0-1.75-1.15H14.87A1.91,1.91,0,0,0,13,13.72v1.82a1.91,1.91,0,0,0,1.91,1.91h1.81a1.91,1.91,0,0,0,1.91-1.91A.48.48,0,0,0,18.11,15.06Z" fill="#2781c4"/></svg>