<svg id="Layer_1" data-name="Layer 1" xmlns="http://www.w3.org/2000/svg" viewBox="0 0 18.48 24"><title>notification</title><path d="M9.2,21.1h0A2.88,2.88,0,0,0,12,24a2.86,2.86,0,0,0,2.8-2.8H9.2Z" transform="translate(-2.66)"/><path d="M18.5,13.8V9.5a2.77,2.77,0,0,1-.9.1,4,4,0,0,1-4-4,3.66,3.66,0,0,1,.9-2.5,6.47,6.47,0,0,0-1.3-.4V1.3A1.18,1.18,0,0,0,12,0a1.32,1.32,0,0,0-1.3,1.3V2.7A6.54,6.54,0,0,0,5.5,9.1v4.7L2.9,17.6a1.23,1.23,0,0,0-.1,1.3,1.36,1.36,0,0,0,1.1.7h16a1.27,1.27,0,0,0,1-2Z" transform="translate(-2.66)"/><circle cx="15.04" cy="5.7" r="3.2" fill="#ff2943"/></svg>