<svg id="Layer_1" data-name="Layer 1" xmlns="http://www.w3.org/2000/svg" viewBox="0 0 17.62 21.15"><title>notification_empty</title><path d="M20.27,16.33a5.88,5.88,0,0,1-2.1-4.52V9.36a6.17,6.17,0,0,0-5.29-6.1V2.31a.88.88,0,0,0-1.76,0v.95a6.17,6.17,0,0,0-5.29,6.1v2.45a5.92,5.92,0,0,1-2.1,4.53,1.51,1.51,0,0,0-.54,1.17,1.54,1.54,0,0,0,1.54,1.54H19.27a1.55,1.55,0,0,0,1-2.72Z" transform="translate(-3.19 -1.43)"/><path d="M12,22.57a3.3,3.3,0,0,0,3.24-2.64H8.76A3.3,3.3,0,0,0,12,22.57Z" transform="translate(-3.19 -1.43)"/></svg>