<svg id="Layer_1" data-name="Layer 1" xmlns="http://www.w3.org/2000/svg" xmlns:xlink="http://www.w3.org/1999/xlink" viewBox="0 0 24 24"><defs><linearGradient id="linear-gradient" x1="12" y1="-152" x2="12" y2="-127.76" gradientTransform="matrix(1, 0, 0, -1, 0, -128)" gradientUnits="userSpaceOnUse"><stop offset="0" stop-color="#fff"/><stop offset="0.16" stop-color="#fcfefc"/><stop offset="0.31" stop-color="#f1faf5"/><stop offset="0.45" stop-color="#dff3e8"/><stop offset="0.58" stop-color="#c5ead6"/><stop offset="0.71" stop-color="#a4debe"/><stop offset="0.84" stop-color="#7ccfa1"/><stop offset="0.96" stop-color="#4dbe80"/><stop offset="1" stop-color="#3db874"/></linearGradient></defs><title>pembiayaan_icon</title><circle cx="12" cy="12" r="12" opacity="0.4" fill="url(#linear-gradient)" style="isolation:isolate"/><path d="M18.2,10.08l-6.65-2.4a.57.57,0,0,0-.74.34L9.66,11.18a.58.58,0,0,0,.35.74h0l6.65,2.4A.57.57,0,0,0,17.4,14l1.14-3.16a.57.57,0,0,0-.34-.74Z" fill="#5fcda4"/><path d="M17.49,11.44h0c-.62-.21-.55-.59-.41-1.06,0,0,0,0,0-.05L12.2,8.52a.06.06,0,0,0-.07,0c-.19.43-.38.74-.92.59l-.5.93h0l-.11.3a0,0,0,0,0,0,.05h0c.6.21.52.67.38,1.13a0,0,0,0,0,0,0l4.9,1.82s0,0,0,0c.2-.44.42-.83,1-.6h0a0,0,0,0,0,.05,0l.48-1.27s0,0,0-.05Z" fill="#4ca987"/><path d="M14.42,10a1.08,1.08,0,1,1-.73,2A1.08,1.08,0,0,1,13,10.63h0A1.07,1.07,0,0,1,14.41,10Z" fill="#5fcda4"/><path d="M17.6,15.06l-2.37,1.3A1.25,1.25,0,0,0,14,15.29H12.33a2,2,0,0,1-.86-.2L11.3,15a2.75,2.75,0,0,0-2.88.28L8,15.67a1.7,1.7,0,0,1-.79.4h0l1,3.16,1.35-.87a.93.93,0,0,1,.69-.09l2.51.47a3,3,0,0,0,1.89-.28l4.34-3A1,1,0,0,0,17.6,15.06Z" fill="#ffd8b7"/><path d="M10.68,8.36l-.19.53L10,8.74a1,1,0,0,1-.5-.38A3.23,3.23,0,0,0,10.68,8.36Z" fill="#efc597"/><path d="M10.13,9.9l-.14.38-.93.41a.18.18,0,0,1-.22-.11,0,0,0,0,0,0,0,.63.63,0,0,1,.25-.61l.3-.21a2.84,2.84,0,0,1,.49.1Z" fill="#efc597"/><path d="M11.53,10.71h0a0,0,0,0,1,0-.05l.11-.3h0l.51-.93c.53.15.73-.16.91-.59h0l-.84-.32a.06.06,0,0,0-.07,0c-.19.43-.38.74-.92.59l-.5.93h0l-.11.3a0,0,0,0,0,0,.05h0c.6.21.52.67.38,1.13a0,0,0,0,0,0,0l.86.32s0-.06,0-.06c.14-.46.22-.91-.39-1.13Z" fill="#418469"/><path d="M11.76,9.31l-.66-.22L10,8.74a1,1,0,0,1-.5-.38,3.23,3.23,0,0,0,1.16,0L10.81,8a.57.57,0,0,1,.74-.34l.22.08L10.48,6.43a.64.64,0,0,0-.65-.19,9.51,9.51,0,0,1-3.39.37h0L5.7,8.66l1.61.72a2.78,2.78,0,0,0,1.23.32l.64,0h.2a2.84,2.84,0,0,1,.49.1l.26.07,1.31.37a.5.5,0,0,0,.63-.34A.5.5,0,0,0,11.76,9.31Z" fill="#ffd8b7"/><path d="M5,5.86,4.58,8.69l1,.36,1-2.8Z" fill="#4689d3"/><path d="M5,5.86,4.58,8.69,5.47,9l.45-2.92Z" fill="#3c70a0"/><g id="_Group_" data-name=" Group "><g id="_Path_" data-name=" Path "><path d="M15.25,16.8h0l-1.43-.07a6.59,6.59,0,0,0-1.25.06.17.17,0,0,1-.2-.15.18.18,0,0,1,.15-.21h0a7.3,7.3,0,0,1,1.32-.06l1.22.06a1.07,1.07,0,0,0-1.05-.9H12.33a2.06,2.06,0,0,1-.94-.22l-.17-.08a2.57,2.57,0,0,0-2.69.26l-.41.37a1.75,1.75,0,0,1-.88.44A.18.18,0,0,1,7.17,16h0a1.44,1.44,0,0,0,.71-.35l.42-.38h0a2.9,2.9,0,0,1,3.07-.3l.17.08a1.75,1.75,0,0,0,.78.18H14a1.44,1.44,0,0,1,1.43,1.45.18.18,0,0,1-.18.18Z" fill="#d8b79e"/></g></g><path d="M14.26,8a.18.18,0,0,1-.18-.18.13.13,0,0,1,0-.06l.12-.33a.19.19,0,0,1,.23-.11.2.2,0,0,1,.11.24l-.12.32A.17.17,0,0,1,14.26,8Z" fill="#80aaff"/><path d="M14.56,7.18A.19.19,0,0,1,14.38,7a.13.13,0,0,1,0-.06l.46-1.27a.17.17,0,0,1,.23-.11.18.18,0,0,1,.11.23h0l-.46,1.28A.19.19,0,0,1,14.56,7.18Z" fill="#80aaff"/><path d="M15.58,7.66a.18.18,0,0,1-.18-.18s0,0,0-.06l.46-1.26a.19.19,0,0,1,.23-.11.2.2,0,0,1,.11.24l-.46,1.25A.16.16,0,0,1,15.58,7.66Z" fill="#80aaff"/><path d="M16.22,5.9A.18.18,0,0,1,16,5.72a.13.13,0,0,1,0-.06l.1-.26a.17.17,0,0,1,.23-.11.19.19,0,0,1,.11.23l-.1.26A.17.17,0,0,1,16.22,5.9Z" fill="#80aaff"/><path d="M16.39,8.76a.18.18,0,0,1-.18-.18.13.13,0,0,1,0-.06l.12-.33a.18.18,0,0,1,.23-.11.19.19,0,0,1,.11.23l-.12.33a.19.19,0,0,1-.17.12Z" fill="#80aaff"/><path d="M16.68,7.94a.18.18,0,0,1-.18-.18s0,0,0-.06L17,6.42a.17.17,0,0,1,.23-.1.18.18,0,0,1,.11.23h0l-.47,1.28A.17.17,0,0,1,16.68,7.94Z" fill="#80aaff"/><path d="M7.07,13.84H6.89a.18.18,0,0,1,0-.36h.18a.18.18,0,0,1,0,.36Z" fill="#d4e1f4"/><path d="M8.78,13.85H7.55a.18.18,0,0,1,0-.36H8.78a.18.18,0,0,1,0,.36Z" fill="#d4e1f4"/><path d="M8.23,13H8.06a.18.18,0,0,1,0-.36h.18a.18.18,0,0,1,.18.18.19.19,0,0,1-.19.18Z" fill="#d4e1f4"/><path d="M7.58,13h-1a.19.19,0,0,1-.19-.18.19.19,0,0,1,.19-.18h1a.18.18,0,1,1,0,.36Z" fill="#d4e1f4"/><path d="M15.24,19.24a.18.18,0,0,1-.18-.18.18.18,0,0,1,.08-.15l.39-.28a.18.18,0,1,1,.21.29h0l-.4.27a.13.13,0,0,1-.1,0Zm.79-.56a.18.18,0,0,1-.18-.18.21.21,0,0,1,.07-.15l.4-.27a.18.18,0,1,1,.21.29h0l-.39.28A.19.19,0,0,1,16,18.68Zm.78-.55a.18.18,0,0,1-.18-.18.18.18,0,0,1,.08-.15l.39-.28a.18.18,0,0,1,.26.05.19.19,0,0,1-.05.25l-.39.27a.15.15,0,0,1-.11,0Zm.79-.56a.18.18,0,0,1-.18-.18.19.19,0,0,1,.08-.15l.39-.27a.18.18,0,1,1,.21.29l-.39.28A.2.2,0,0,1,17.6,17.57Zm.79-.55a.18.18,0,0,1-.18-.18.18.18,0,0,1,.08-.15l.39-.28a.18.18,0,1,1,.21.29h0l-.4.27A.18.18,0,0,1,18.39,17Z" fill="#b0b5ca"/><path d="M9.63,7.14A.18.18,0,0,1,9.45,7a.19.19,0,0,1,.13-.18l.18,0a.19.19,0,0,1,.23.13.19.19,0,0,1-.13.22l-.19,0Z" fill="#f4f8fc"/><path d="M7.4,7.45a.18.18,0,0,1-.18-.18.17.17,0,0,1,.17-.18A9,9,0,0,0,9,6.91a.19.19,0,0,1,.21.14.19.19,0,0,1-.14.22,9.71,9.71,0,0,1-1.7.18Z" fill="#f4f8fc"/><path d="M7.18,16l-1.61.2.21,3.51,2.41-.32Z" fill="#e87187"/></svg>