<svg id="Layer_1" data-name="Layer 1" xmlns="http://www.w3.org/2000/svg" xmlns:xlink="http://www.w3.org/1999/xlink" viewBox="0 0 24 24"><defs><linearGradient id="linear-gradient" x1="12" y1="1152" x2="12" y2="1127.76" gradientTransform="translate(0 -1128)" gradientUnits="userSpaceOnUse"><stop offset="0" stop-color="#fff"/><stop offset="0.15" stop-color="#fffefc"/><stop offset="0.29" stop-color="#fffbf1"/><stop offset="0.41" stop-color="#fff5df"/><stop offset="0.54" stop-color="#feedc5"/><stop offset="0.66" stop-color="#fee2a4"/><stop offset="0.77" stop-color="#fdd67c"/><stop offset="0.89" stop-color="#fdc74d"/><stop offset="1" stop-color="#fcb617"/></linearGradient></defs><title>shu_icon</title><circle cx="12" cy="12" r="12" opacity="0.4" fill="url(#linear-gradient)" style="isolation:isolate"/><path d="M14.1,13.5a3.21,3.21,0,0,1-1.7-2.9,2.77,2.77,0,0,1,.1-.9c-.1-.1-.1-.1-.2-.1a2.34,2.34,0,0,0-1.5-.7h-2c-.7,0-1.1.5-1.5.7a4,4,0,0,0-1.5,2.6l-.4,2.5a1.63,1.63,0,0,0,1.7,1.9h5.5a1.74,1.74,0,0,0,1.7-1.9Z" fill="#b0efa5"/><path d="M6.8,14.7l.4-2.5A4.86,4.86,0,0,1,8.7,9.6a2.63,2.63,0,0,1,1.5-.7H8.9c-.7,0-1.1.5-1.5.7a4,4,0,0,0-1.5,2.6l-.4,2.5a1.63,1.63,0,0,0,1.7,1.9H8.5a1.63,1.63,0,0,1-1.7-1.9Z" fill="#7fd394"/><path d="M18.4,14.8H12.8a.5.5,0,0,1,0-1h5.6a.5.5,0,0,1,0,1Z" fill="#fee07d"/><path d="M13.4,14.4h5.5v-.1a.47.47,0,0,0-.5-.5H12.8a.5.5,0,0,0,0,1H13a.43.43,0,0,1,.4-.4Z" fill="#ffcf64"/><path d="M18.4,15.8H12.8a.5.5,0,0,1,0-1h5.6a.47.47,0,0,1,.5.5A.54.54,0,0,1,18.4,15.8Z" fill="#fee07d"/><path d="M13.4,15.4h5.5v-.1a.47.47,0,0,0-.5-.5H12.8a.5.5,0,0,0,0,1H13a.37.37,0,0,1,.4-.4Z" fill="#ffcf64"/><path d="M18.4,17.6H12.8a.5.5,0,0,1,0-1h5.6a.5.5,0,0,1,0,1Z" fill="#fee07d"/><path d="M13.4,17.2h5.5v-.1a.47.47,0,0,0-.5-.5H12.8a.5.5,0,0,0,0,1H13a.43.43,0,0,1,.4-.4Z" fill="#ffcf64"/><path d="M18.4,16.7H12.8a.5.5,0,0,1,0-1h5.6a.5.5,0,0,1,0,1Z" fill="#fee07d"/><path d="M13.4,16.3h5.5v-.1a.47.47,0,0,0-.5-.5H12.8a.5.5,0,0,0,0,1H13a.43.43,0,0,1,.4-.4Z" fill="#ffcf64"/><path d="M11.4,5.7l-.8-.2-.3,2.1h.5L11.6,6c0-.2-.1-.3-.2-.3Z" fill="#7fd394"/><circle cx="15.7" cy="10.7" r="3.2" fill="#fee07d"/><path d="M12.9,10.7a3.18,3.18,0,0,1,3-3.2h-.3a3.22,3.22,0,0,0-3.2,3.2,3.29,3.29,0,0,0,3.2,3.2h.3A3.26,3.26,0,0,1,12.9,10.7Z" fill="#ffcf64"/><path d="M9.9,4.8c-.3,0-.8.1-.7.4l.3,2.5h.8l.3-2.5C10.7,4.8,10.2,4.8,9.9,4.8Z" fill="#b0efa5"/><path d="M10.8,8.9H9a.47.47,0,0,1-.5-.5V8.2A.47.47,0,0,1,9,7.7h1.7a.47.47,0,0,1,.5.5v.3c.1.2-.1.4-.4.4Z" fill="#857e87"/><path d="M9.6,8.4V8.2a.47.47,0,0,1,.5-.5H9a.47.47,0,0,0-.5.5v.3A.47.47,0,0,0,9,9h1.1A.63.63,0,0,1,9.6,8.4Z" fill="#6f6571"/><path d="M9,7.6h.4l-.2-2-.8.1c-.1,0-.2.1-.2.3l.7,1.7L9,7.6Z" fill="#7fd394"/><path d="M18.4,13.7H17.2a3.41,3.41,0,0,0-1.3-6.4.2.2,0,0,0,0,.4,3,3,0,0,1,2.8,3,3,3,0,1,1-3.5-3,.2.2,0,1,0,0-.4,3.26,3.26,0,0,0-2.6,2.2.1.1,0,0,1-.1-.1,2.42,2.42,0,0,0-1-.6c.1-.1.1-.2.1-.4V8.2a.71.71,0,0,0-.3-.6A11.69,11.69,0,0,1,11.8,6a.51.51,0,0,0-.4-.5l-.6-.1c0-.2.1-.4-.1-.6a1.6,1.6,0,0,0-.8-.3,1.4,1.4,0,0,0-.9.3c-.1.2,0,.4,0,.6l-.6.1A.51.51,0,0,0,8,6l.6,1.5a.91.91,0,0,0-.3.7v.3a.6.6,0,0,0,.1.4C7.6,9,6.1,10.4,5.7,12c0,.1,0,.2.2.2s.2,0,.2-.2A4.54,4.54,0,0,1,7.5,9.8a3,3,0,0,1,1.1-.7c-.1.2-.3.4-.5.7a.19.19,0,0,0,0,.3c.1.1.2,0,.3-.1a2.3,2.3,0,0,1,.8-.7.77.77,0,0,1,.3-.1h.8a.49.49,0,0,1,.3.1,1.42,1.42,0,0,1,.7.8.37.37,0,0,0,.3.1.37.37,0,0,0,.1-.3,4.35,4.35,0,0,0-.6-.7,2.33,2.33,0,0,1,1.1.7l.1.1a2.2,2.2,0,0,0-.1.8,3.26,3.26,0,0,0,1.8,3H12.8a.68.68,0,0,0-.7.7c0,.2.1.3.2.5a.76.76,0,0,0-.2.5c0,.2.1.3.2.5a.76.76,0,0,0-.2.5v.2H7.2A1.53,1.53,0,0,1,5.7,15L6,12.9a.2.2,0,0,0-.4,0l-.3,1.8a1.92,1.92,0,0,0,1.9,2.2h5.1a.37.37,0,0,0-.1.3.68.68,0,0,0,.7.7h5.6a.68.68,0,0,0,.7-.7c0-.2-.1-.3-.2-.5a.76.76,0,0,0,.2-.5c0-.2-.1-.3-.2-.5a.76.76,0,0,0,.2-.5c0-.2-.1-.3-.2-.5a.76.76,0,0,0,.2-.5,1,1,0,0,0-.8-.5ZM9,8.7a.27.27,0,0,1-.3-.3V8.2A.32.32,0,0,1,9,7.9h1.7a.27.27,0,0,1,.3.3v.3a.27.27,0,0,1-.3.3C10.8,8.7,10.5,8.7,9,8.7Zm2.4-2.8h0l-.6,1.5h-.2l.2-1.6ZM9.9,5a1.21,1.21,0,0,1,.5.1h0l-.3,2.4H9.7L9.4,5.1h0c0-.1.2-.1.5-.1Zm-1.5.9h0L9,5.8l.2,1.6H9Zm10,9.7H15a.2.2,0,0,0,0,.4h3.4a.32.32,0,0,1,.3.3.27.27,0,0,1-.3.3H12.8a.32.32,0,0,1-.3-.3.27.27,0,0,1,.3-.3H14a.2.2,0,0,0,0-.4H12.8a.32.32,0,0,1-.3-.3.27.27,0,0,1,.3-.3h5.6a.32.32,0,0,1,.3.3.27.27,0,0,1-.3.3Zm-5.5-1.5h5.6a.3.3,0,0,1,0,.6H12.9a.32.32,0,0,1-.3-.3A.27.27,0,0,1,12.9,14.1Zm5.5,3.3H12.8a.32.32,0,0,1-.3-.3.27.27,0,0,1,.3-.3h5.6a.32.32,0,0,1,.3.3A.27.27,0,0,1,18.4,17.4Z"/><path d="M15.2,11.2l-.4-.5h-.4v.5H14V9.4h.8a.71.71,0,0,1,.8.7.55.55,0,0,1-.4.6l.4.6h-.4Zm-.4-1.5h-.3v.6h.3c.3,0,.4-.1.4-.3S15.1,9.7,14.8,9.7Z"/><path d="M17.5,10.5a.68.68,0,0,1-.7.7.52.52,0,0,1-.4-.2v.7H16V9.8h.4V10a.76.76,0,0,1,.4-.2A.63.63,0,0,1,17.5,10.5Zm-.4,0a.43.43,0,0,0-.4-.4.37.37,0,0,0-.4.4.4.4,0,0,0,.8,0Z"/><path d="M9.6,13.7l-.4-.5H8.8v.5H8.4V11.9h.8a.71.71,0,0,1,.8.7.55.55,0,0,1-.4.6l.4.6H9.6Zm-.4-1.5H8.8v.6h.3c.3,0,.4-.1.4-.3S9.4,12.2,9.2,12.2Z"/><path d="M11.8,13a.68.68,0,0,1-.7.7.52.52,0,0,1-.4-.2v.7h-.4V12.3h.4v.2a.76.76,0,0,1,.4-.2A.63.63,0,0,1,11.8,13Zm-.4,0a.43.43,0,0,0-.4-.4.37.37,0,0,0-.4.4.43.43,0,0,0,.4.4A.37.37,0,0,0,11.4,13Z"/></svg>