<svg id="Layer_1" data-name="Layer 1" xmlns="http://www.w3.org/2000/svg" xmlns:xlink="http://www.w3.org/1999/xlink" viewBox="0 0 24 24"><defs><linearGradient id="linear-gradient" x1="12" y1="-152" x2="12" y2="-127.76" gradientTransform="matrix(1, 0, 0, -1, 0, -128)" gradientUnits="userSpaceOnUse"><stop offset="0" stop-color="#fff"/><stop offset="0.17" stop-color="#fcfefc"/><stop offset="0.32" stop-color="#f1faf4"/><stop offset="0.46" stop-color="#dff3e7"/><stop offset="0.6" stop-color="#c5e9d4"/><stop offset="0.74" stop-color="#a4ddbc"/><stop offset="0.87" stop-color="#7ccd9f"/><stop offset="1" stop-color="#4ebc7c"/><stop offset="1" stop-color="#4cbb7b"/></linearGradient></defs><title>simpanan_icon</title><circle cx="12" cy="12" r="12" opacity="0.4" fill="url(#linear-gradient)" style="isolation:isolate"/><path d="M19.54,10.2h0V8.71a2.28,2.28,0,0,0-.65-1.56,2.19,2.19,0,0,0-1.55-.64H7.73a2.27,2.27,0,0,0-1.56.64,2.23,2.23,0,0,0-.64,1.56v7.43a2.23,2.23,0,0,0,.64,1.55,2.2,2.2,0,0,0,1.56.65h9.66A2.24,2.24,0,0,0,19,17.69a2.19,2.19,0,0,0,.64-1.55V14.65h0a1,1,0,0,0,.71-.3,1,1,0,0,0,.3-.71V11.19a1,1,0,0,0-.3-.71A1.12,1.12,0,0,0,19.54,10.2Zm-.73,5.94a1.4,1.4,0,0,1-.41,1,1.43,1.43,0,0,1-1,.41H7.73a1.4,1.4,0,0,1-1-.41,1.42,1.42,0,0,1-.41-1V8.72a1.38,1.38,0,0,1,1.4-1.39h9.66a1.39,1.39,0,0,1,1,.4,1.45,1.45,0,0,1,.41,1v1.5H14.34a2.22,2.22,0,0,0-1.54.64,2.19,2.19,0,0,0-.64,1.54v.11a2.19,2.19,0,0,0,.64,1.54,2.22,2.22,0,0,0,1.54.64h4.47v1.45Zm.94-2.47a.16.16,0,0,1-.06.14.23.23,0,0,1-.15.07h-5.2A1.4,1.4,0,0,1,13,12.49v-.11A1.4,1.4,0,0,1,14.34,11h5.2a.17.17,0,0,1,.15.07.22.22,0,0,1,.06.14v2.46Z" fill="#0d9437"/><path d="M14.44,11.79A.73.73,0,0,0,14,12h0a.66.66,0,0,0-.19.45.73.73,0,0,0,.19.46h0a.64.64,0,1,0,.91-.91A.66.66,0,0,0,14.44,11.79Z" fill="#fff"/><path d="M12.8,14a2.19,2.19,0,0,1-.64-1.54v-.11a2.19,2.19,0,0,1,.64-1.54,2.22,2.22,0,0,1,1.54-.64h4.47V8.69a1.4,1.4,0,0,0-.41-1,1.43,1.43,0,0,0-1-.41H7.73a1.4,1.4,0,0,0-1,.41,1.43,1.43,0,0,0-.41,1v7.43a1.4,1.4,0,0,0,1.4,1.4h9.66a1.36,1.36,0,0,0,1-.41,1.42,1.42,0,0,0,.41-1V14.63H14.34A2.07,2.07,0,0,1,12.8,14Z" fill="#78dd94"/><path d="M14.44,11.79a.64.64,0,1,1-.65.64A.66.66,0,0,1,14.44,11.79Zm-1.48.7a1.4,1.4,0,0,0,1.38,1.39h5.2a.17.17,0,0,0,.15-.07.22.22,0,0,0,.06-.14V11.19a.17.17,0,0,0-.06-.14.28.28,0,0,0-.15-.06h-5.2a1.35,1.35,0,0,0-1,.41,1.37,1.37,0,0,0-.41,1v.12Z" fill="#78dd94"/></svg>