<svg id="Layer_1" data-name="Layer 1" xmlns="http://www.w3.org/2000/svg" viewBox="0 0 16.77 20.41"><title>tagihan</title><path d="M7.77,10.34h3a.47.47,0,0,0,.48-.47.48.48,0,0,0-.48-.48h-3a.48.48,0,0,0-.47.48A.47.47,0,0,0,7.77,10.34Z" transform="translate(-3.61 -2.4)"/><path d="M13.63,12.46H7.77a.48.48,0,0,0-.47.48.47.47,0,0,0,.47.47h5.86a.47.47,0,0,0,.47-.47A.48.48,0,0,0,13.63,12.46Z" transform="translate(-3.61 -2.4)"/><path d="M13.63,15.54H7.77a.47.47,0,1,0,0,.94h5.86a.47.47,0,0,0,0-.94Z" transform="translate(-3.61 -2.4)"/><path d="M20.38,19.08V4.2a1.72,1.72,0,0,0-1.65-1.8H8.46a1.93,1.93,0,0,0-2,1.8V5H5.62a2.05,2.05,0,0,0-2,2V21.87a.82.82,0,0,0,.48.66.74.74,0,0,0,.8-.14l1.44-1.3,1.72,1.53a.71.71,0,0,0,.48.19A.75.75,0,0,0,9,22.62l1.7-1.53,1.7,1.53a.72.72,0,0,0,.95,0l1.72-1.53,1.42,1.3a.57.57,0,0,0,.71.14.71.71,0,0,0,.35-.66V18.51l.28-.21,1.44,1.3a.73.73,0,0,0,.5.19.52.52,0,0,0,.24-.05A.67.67,0,0,0,20.38,19.08Zm-3.77,2.27L15.5,20.26a.66.66,0,0,0-.93,0l-1.72,1.53-1.68-1.53a.75.75,0,0,0-.94,0l-1.7,1.53L6.8,20.24a.76.76,0,0,0-1,0L4.56,21.35V7A1.1,1.1,0,0,1,5.62,6H15.78a.91.91,0,0,1,.83,1V21.35ZM19.44,4.2V18.56l-1.18-1.09c-.19-.19-.24-.23-.71-.16V7a1.86,1.86,0,0,0-1.77-2H7.39V4.2c0-.52.55-.85,1.07-.85H18.61a.77.77,0,0,1,.83.72Z" transform="translate(-3.61 -2.4)"/></svg>