<svg id="Layer_1" data-name="Layer 1" xmlns="http://www.w3.org/2000/svg" viewBox="0 0 23.44 23.94"><title>topup_icon</title><path d="M7,20.75s-5.7-7.5.3-13.3,13.7.3,13.7.3L20,5l-4.9-3.7H8.66l-6.1,3.9-2,5.6L2.26,18l4.3,3.2Z" transform="translate(0 -0.01)" fill="#0d9437" opacity="0.15" style="isolation:isolate"/><path d="M22.56,11.85a10.75,10.75,0,0,0-2.3-7,11.13,11.13,0,0,0-15.5-1.5c-5,4.1-4.8,11.3-1.5,15.5,2.8,3.5,7.2,3.9,8.2,4" transform="translate(0 -0.01)" fill="none" stroke="#0d9437" stroke-linecap="round" stroke-miterlimit="10" stroke-width="1.75"/><path d="M22.16,16.85h-3.7a.22.22,0,0,1-.2-.2V13a1.1,1.1,0,0,0-2.2,0v3.7a.22.22,0,0,1-.2.2h-3.7A1.06,1.06,0,0,0,12,19a.82.82,0,0,0,.27,0H16a.22.22,0,0,1,.2.2v3.7a1.1,1.1,0,1,0,2.2,0v-3.7a.22.22,0,0,1,.2-.2h3.7a1.06,1.06,0,1,0,.17-2.11A.82.82,0,0,0,22.16,16.85Z" transform="translate(0 -0.01)" fill="#0d9437"/></svg>