<svg id="Layer_1" data-name="Layer 1" xmlns="http://www.w3.org/2000/svg" xmlns:xlink="http://www.w3.org/1999/xlink" viewBox="0 0 24 24"><defs><linearGradient id="linear-gradient" x1="12" y1="-152" x2="12" y2="-127.76" gradientTransform="matrix(1, 0, 0, -1, 0, -128)" gradientUnits="userSpaceOnUse"><stop offset="0" stop-color="#fff"/><stop offset="0.17" stop-color="#fcfdfe"/><stop offset="0.32" stop-color="#f1f7fc"/><stop offset="0.46" stop-color="#dfedf7"/><stop offset="0.6" stop-color="#c5def1"/><stop offset="0.73" stop-color="#a4cce9"/><stop offset="0.86" stop-color="#7cb5df"/><stop offset="0.99" stop-color="#4d9ad4"/><stop offset="1" stop-color="#4998d3"/></linearGradient></defs><title>transfer_simp_icon</title><circle cx="12" cy="12" r="12" opacity="0.4" fill="url(#linear-gradient)" style="isolation:isolate"/><path d="M7.56,7.78a1.54,1.54,0,0,0,1.59-1.5A1.59,1.59,0,0,0,6,6.28,1.54,1.54,0,0,0,7.56,7.78Z" fill="#2196f3"/><path d="M9,8.38H6.14A1.71,1.71,0,0,0,4.39,10v.3a.47.47,0,0,0,.48.45h5.39a.46.46,0,0,0,.47-.45V10A1.71,1.71,0,0,0,9,8.38Z" fill="#2196f3"/><path d="M7.56,4.77A1.55,1.55,0,0,0,6,6.28a1.54,1.54,0,0,0,1.58,1.5Z" fill="#1d83d4"/><path d="M7.56,8.38H6.14A1.71,1.71,0,0,0,4.39,10v.3a.47.47,0,0,0,.48.45H7.56Z" fill="#1d83d4"/><path d="M16.44,16.22A1.51,1.51,0,1,1,18,14.71,1.55,1.55,0,0,1,16.44,16.22Z" fill="#4caf50"/><path d="M19.13,19.23H13.74a.46.46,0,0,1-.47-.45v-.3A1.7,1.7,0,0,1,15,16.82h2.85a1.7,1.7,0,0,1,1.75,1.66v.3A.47.47,0,0,1,19.13,19.23Z" fill="#4caf50"/><path d="M16.44,13.21a1.51,1.51,0,1,0,0,3Z" fill="#429846"/><path d="M16.44,16.82H15a1.7,1.7,0,0,0-1.74,1.66v.3a.46.46,0,0,0,.47.45h2.7Z" fill="#429846"/><path d="M17.23,11.4a.47.47,0,0,1-.48-.45V8.23A.77.77,0,0,0,16,7.48H11.21a.45.45,0,1,1,0-.9H16a1.71,1.71,0,0,1,1.75,1.65V11A.47.47,0,0,1,17.23,11.4Z" fill="#607d8b"/><path d="M17.23,11.4a.51.51,0,0,1-.34-.14l-1.11-1a.45.45,0,0,1-.1-.49.49.49,0,0,1,.44-.28h2.22a.48.48,0,0,1,.44.28.45.45,0,0,1-.1.49l-1.11,1A.51.51,0,0,1,17.23,11.4Z" fill="#607d8b"/><path d="M17.23,11.4Zm0,0Zm0,0h0Zm-.17,0a.51.51,0,0,0,.17,0ZM16.05,7H10.73a.47.47,0,0,0,.48.45H16a.77.77,0,0,1,.79.75V9.44h.48V8.15A1.15,1.15,0,0,0,16.05,7Z" fill="#546d79"/><path d="M17.23,9.44H16.12a.49.49,0,0,0-.44.28.45.45,0,0,0,.1.49l1.11,1a.76.76,0,0,0,.16.11.57.57,0,0,0,.18,0h0v-2Z" fill="#546d79"/><path d="M11.52,17.42H8a1.71,1.71,0,0,1-1.75-1.65V13.05a.48.48,0,0,1,1,0v2.72a.77.77,0,0,0,.79.75h3.48a.45.45,0,1,1,0,.9Z" fill="#607d8b"/><path d="M7.88,14.56H5.66a.48.48,0,0,1-.44-.28.45.45,0,0,1,.1-.49l1.11-1a.5.5,0,0,1,.68,0l1.11,1a.45.45,0,0,1,.1.49A.49.49,0,0,1,7.88,14.56Z" fill="#607d8b"/><path d="M7.25,14.56H6.77v1.22A1.22,1.22,0,0,0,8,17h4a.46.46,0,0,0-.48-.45H8a.77.77,0,0,1-.79-.75Zm-.14-1.83h0Zm0,0Zm0,0Zm0,0Zm-.33-.13a.37.37,0,0,1,.18,0A.48.48,0,0,0,6.77,12.6Z" fill="#546d79"/><path d="M6.77,12.6v2H7.88a.49.49,0,0,0,.44-.28.45.45,0,0,0-.1-.49l-1.11-1h0A.38.38,0,0,0,7,12.64a.37.37,0,0,0-.18,0Z" fill="#546d79"/></svg>