<svg id="Layer_1" data-name="Layer 1" xmlns="http://www.w3.org/2000/svg" viewBox="0 0 23.96 23.47"><title>transfer_icon</title><path d="M2.48,7.88s7.2-8.1,14-2.3S15.28,17,15.28,17s-3.2,1.9-1.8,4.6c2.1.7,5.9-1.6,5.9-1.6l3.5-5.4-.3-5.9L19,3.08,12,1l-5.6,1.4Z" transform="translate(0 0)" fill="#0d9437" opacity="0.15" style="isolation:isolate"/><path d="M15.58,22.38A11.45,11.45,0,0,0,23.08,12,11.19,11.19,0,0,0,12,.88C5.48.88,1,6.58.88,12a11.28,11.28,0,0,0,3.8,8.3" transform="translate(0 0)" fill="none" stroke="#0d9437" stroke-linecap="round" stroke-miterlimit="10" stroke-width="1.76"/><path d="M12.58,18.88h0v-8h0c0,.1.1.1.1.2a1.84,1.84,0,0,0,.5.7h0l1.9,1.9a1.54,1.54,0,0,0,1.3.2.09.09,0,0,0,.1-.1h0a.78.78,0,0,0,.1-1.1h0l-.1-.1-3.9-3.9a1.09,1.09,0,0,0-1.5,0l-3.7,3.7a1.09,1.09,0,0,0,0,1.5h0a1,1,0,0,0,.9-.1l2.2-2.2.1-.1a.52.52,0,0,0,.2-.4l.1-.3v7.8a1.06,1.06,0,0,0,.7.9h.1C12.48,19.48,12.58,19.28,12.58,18.88Z" transform="translate(0 0)" fill="#0d9437"/><path d="M16.28,21.08s-3.6,2.1-3.7-3.6a4.77,4.77,0,0,0-1.6-.1v1.2s0,7.4,6.2,4C17.38,21.68,16.28,21.08,16.28,21.08Z" transform="translate(0 0)" fill="#0d9437"/></svg>